<svg width="96" height="96" viewBox="0 0 96 96" fill="none" xmlns="http://www.w3.org/2000/svg">
  <defs><linearGradient id="g" x1="16" y1="12" x2="80" y2="84" gradientUnits="userSpaceOnUse"><stop stop-color="#315EFB"/><stop offset="1" stop-color="#7C4DFF"/></linearGradient></defs>
  <rect width="96" height="96" rx="28" fill="url(#g)"/>
  <path d="M67.8 20.5c-6.2 2.1-10.9 6.7-14.2 12.3l-8.4-8.1-3.5 13.1c-8.1 3.6-13.2 10.5-13.2 19.6 0 10.2 8.3 18.5 18.5 18.5h7.8c8.8 0 15.9-7.1 15.9-15.9 0-6.8-2.4-12.6-6.4-17.1 1.2-7.2 3.3-14.9 3.5-22.4Z" fill="white"/>
  <path d="M47.4 47.6c3.8-4.8 10.5-7.5 16.6-5.8M48.2 62.9c4.5 2.5 10.4 2.1 14.4-1.1" stroke="#315EFB" stroke-width="4" stroke-linecap="round"/>
  <circle cx="58.6" cy="47.7" r="2.8" fill="#111B36"/><path d="M39.1 38.4 34 30.1" stroke="white" stroke-width="5" stroke-linecap="round"/>
</svg>
